<svg xmlns="http://www.w3.org/2000/svg" version="1.1" xmlns:xlink="http://www.w3.org/1999/xlink" width="800" height="600">

  <defs>
    <circle id="junction" r="10" stroke="black" stroke-width="5" fill="white"/>
    <line id="station" y1="0" y2="-10" stroke-width="6"/>
    <line id="terminus" y1="-10" y2="10" stroke-width="6"/>
  </defs>

  <!-- draw the lines first -->
  <path d="M 550,250 L 460,250 Q 450,250 443,257 L 357,343 Q 350,350 350,360 L 350,550" stroke="green" stroke-width="10" fill="none"/>
  <path d="M 550,240 L 460,240 Q 450,240 443,233 L 330,130" stroke="yellow" stroke-width="10" fill="none"/>
  <path d="M 400,300 L 400,100" stroke="lightblue" stroke-width="10" fill="none"/>
  <path d="M 400,300 L 150,300" stroke="red" stroke-width="10" fill="none"/>

  <!-- Central Station -->
  <g transform="translate(400 300)">
    <use xlink:href="#junction" />
    <text x="15" y="15" text-anchor="start" font-family="sans serif" font-size="14">Central Station</text>
  </g>

  <!-- Central North -->
  <g transform="translate(400 193)">
    <use xlink:href="#junction" />
    <text y="15" x="-15" text-anchor="end" font-family="sans serif" font-size="14">Central North</text>
  </g>

  <!-- this one's a bit fiddly since it's a terminus of two parallel lines -->
  <g transform="translate(550 245)">
    <line y1="0" y2="15" stroke="green" stroke-width="6"/>
    <line y1="0" y2="-15" stroke="yellow" stroke-width="6"/>
    <text y="-45" text-anchor="middle" font-family="sans serif" font-size="14">
      <tspan>Casa del</tspan>
      <tspan x="0" dy="20">Jamie</tspan>
    </text>
  </g>

  <!-- Torus -->
  <g transform="translate(350 400)">
    <use xlink:href="#station" stroke="green" transform="rotate(90)"/>
    <text x="20" y="5" text-anchor="start" font-family="sans serif" font-size="14">Torus</text>
  </g>

  <!-- Glass Factory -->
  <g transform="translate(350 450)">
    <use xlink:href="#station" stroke="green" transform="rotate(90)"/>
    <text x="20" y="5" text-anchor="start" font-family="sans serif" font-size="14">Glass Factory</text>
  </g>

  <!-- Southern Desert -->
  <g transform="translate(350 500)">
    <use xlink:href="#station" stroke="green" transform="rotate(90)"/>
    <text x="20" y="5" text-anchor="start" font-family="sans serif" font-size="14">Southern Desert</text>
  </g>

  <g transform="translate(350 550)">
    <use xlink:href="#terminus" stroke="green" transform="rotate(90)"/>
    <text x="20" y="5" text-anchor="start" font-family="sans serif" font-size="14">New Bit</text>
  </g>

  <g transform="translate(400 100)">
    <use xlink:href="#terminus" stroke="lightblue" transform="rotate(90)"/>
    <text x="20" y="5" text-anchor="start" font-family="sans serif" font-size="14">LMB</text>
  </g>

  <g transform="translate(330 130)">
    <use xlink:href="#terminus" stroke="yellow" transform="rotate(45)"/>
    <text x="-10" y="-10" text-anchor="end" font-family="sans serif" font-size="14">Newest Station</text>
  </g>

  <g transform="translate(250 300)">
    <use xlink:href="#station" stroke="red"/>
    <text x="0" y="-20" text-anchor="middle" font-family="sans serif" font-size="14">Village A</text>
  </g>

  <g transform="translate(150 300)">
    <use xlink:href="#terminus" stroke="red"/>
    <text x="0" y="25" text-anchor="start" font-family="sans serif" font-size="14">Fortress A</text>
  </g>

</svg>
